<svg xmlns="http://www.w3.org/2000/svg" width="45.039" height="28.3" viewBox="0 0 45.039 28.3">
  <defs>
    <style>
      .cls-1 {
        fill: #ccc;
      }
    </style>
  </defs>
  <path id="behance" class="cls-1" d="M13.1,0a13.7,13.7,0,0,1,3.6.4,7.816,7.816,0,0,1,2.8,1.1,4.626,4.626,0,0,1,1.8,2.1,7.943,7.943,0,0,1,.6,3.2,5.584,5.584,0,0,1-1,3.5,7.236,7.236,0,0,1-2.8,2.3,6.691,6.691,0,0,1,3.8,2.6,7.878,7.878,0,0,1,1.3,4.4,7.968,7.968,0,0,1-.8,3.6,6.654,6.654,0,0,1-2.2,2.5A10.356,10.356,0,0,1,17,27.1a14.873,14.873,0,0,1-3.6.5H0V0Zm-.8,11.2a4.551,4.551,0,0,0,2.7-.8,2.916,2.916,0,0,0,1-2.5,3.808,3.808,0,0,0-.3-1.6,2.836,2.836,0,0,0-.9-1,5.023,5.023,0,0,0-1.3-.5,8.083,8.083,0,0,0-1.6-.1H6.1v6.5h6.2ZM12.6,23a8.807,8.807,0,0,0,1.7-.2,3.506,3.506,0,0,0,1.4-.6,3.566,3.566,0,0,0,1-1.1,4.776,4.776,0,0,0,.4-1.8,3.853,3.853,0,0,0-1.2-3.1,5.275,5.275,0,0,0-3.2-.9H6.1V23Zm19.3-.1a4.889,4.889,0,0,0,3.6,1.2,5.467,5.467,0,0,0,2.9-.8,4,4,0,0,0,1.5-1.8h4.9a9.754,9.754,0,0,1-3.6,5.2,10.681,10.681,0,0,1-5.8,1.6,11.758,11.758,0,0,1-4.3-.8,7.99,7.99,0,0,1-3.2-2.2,7.934,7.934,0,0,1-2-3.3,11.765,11.765,0,0,1-.7-4.3,11.582,11.582,0,0,1,.7-4.2A10.783,10.783,0,0,1,28,10.1a10.155,10.155,0,0,1,3.2-2.2,11.222,11.222,0,0,1,4.2-.8,9.329,9.329,0,0,1,4.5,1A8.117,8.117,0,0,1,43,10.8a12.117,12.117,0,0,1,1.8,3.8A20.98,20.98,0,0,1,45,19H30.5A5.745,5.745,0,0,0,31.9,22.9Zm6.3-10.5a4.331,4.331,0,0,0-3.1-1.1,4.767,4.767,0,0,0-2.2.5,5.256,5.256,0,0,0-1.4,1.1,2.666,2.666,0,0,0-.7,1.4,6.882,6.882,0,0,0-.2,1.3h9a5.3,5.3,0,0,0-1.4-3.2ZM29.4,1.9H40.6V4.6H29.4Z"/>
</svg>
