<svg xmlns="http://www.w3.org/2000/svg" width="47" height="47" viewBox="0 0 47 47"><defs><style>.a{fill:#ccc;}</style></defs><g transform="translate(-8.5 -8.5)"><path class="a" d="M44.62,22.149A2.212,2.212,0,0,1,43.85,22a2.179,2.179,0,0,1-.34-.181,2.242,2.242,0,0,1-.31-.25,2.02,2.02,0,0,1-.58-1.42,1.7,1.7,0,0,1,.04-.39,1.567,1.567,0,0,1,.109-.37,2.237,2.237,0,0,1,.181-.35,2.39,2.39,0,0,1,.25-.3,2.257,2.257,0,0,1,.31-.25,2.179,2.179,0,0,1,.34-.181,2.449,2.449,0,0,1,.38-.12,2,2,0,0,1,1.8.551,1.817,1.817,0,0,1,.25.3,2.373,2.373,0,0,1,.189.35,2.323,2.323,0,0,1,.11.37,2.639,2.639,0,0,1,.04.39,1.988,1.988,0,0,1-.59,1.42,1.759,1.759,0,0,1-.3.25,2.236,2.236,0,0,1-.349.18,1.572,1.572,0,0,1-.37.109,1.708,1.708,0,0,1-.39.04ZM32,42.936A10.936,10.936,0,1,1,42.936,32,10.936,10.936,0,0,1,32,42.936Zm0-18.871A7.936,7.936,0,1,0,39.936,32,7.935,7.935,0,0,0,32,24.065Z"/><path class="a" d="M27.565,33.5a1.5,1.5,0,0,1-1.5-1.5,5.944,5.944,0,0,1,3.971-5.6,1.5,1.5,0,1,1,.994,2.83A2.942,2.942,0,0,0,29.065,32a1.5,1.5,0,0,1-1.5,1.5Z"/><path class="a" d="M39,55.5H25A16.519,16.519,0,0,1,8.5,39V25A16.519,16.519,0,0,1,25,8.5H39A16.519,16.519,0,0,1,55.5,25V39A16.519,16.519,0,0,1,39,55.5Zm-14-44A13.515,13.515,0,0,0,11.5,25V39A13.515,13.515,0,0,0,25,52.5H39A13.515,13.515,0,0,0,52.5,39V25A13.515,13.515,0,0,0,39,11.5Z"/></g></svg>