<svg xmlns="http://www.w3.org/2000/svg" width="87.651" height="62.762" viewBox="0 0 87.651 62.762"><defs><style>.a,.d{fill:none;}.a{stroke:#ccc;stroke-width:10px;}.b{fill:#ccc;}.c{stroke:none;}</style></defs><g transform="translate(-1661.349 -4680.897)"><g class="a" transform="translate(1708 4688)"><ellipse class="c" cx="20.5" cy="19.5" rx="20.5" ry="19.5"/><ellipse class="d" cx="20.5" cy="19.5" rx="15.5" ry="14.5"/></g><path class="a" d="M1666.371,4680.968v21.7a81.554,81.554,0,0,0,.247,8.234c.7,3.438,3.544,10.177,13.166,10.355a14.264,14.264,0,0,0,13.462-9.911,35.287,35.287,0,0,0,.74-8.875c.012-.035-.3-21.5-.3-21.5"/><path class="b" d="M1698.784,4680.968l9.744,22.179s6.795,15.256,6.795,15.641-3.718,24.872-3.718,24.872h-10.577s5.641-27.563,5.641-27.884-10.449-17.757-10.449-17.757l-.577-15.192Z"/></g></svg>